<svg xmlns="http://www.w3.org/2000/svg" width="150" height="48" viewBox="0 0 150 48">
  <path d="M0 .68h28.52V9H0zm0 14.84h28.52v8.33H0zm0 14.85h28.52v8.33H0zM30.87 38.68V.78h7.37v37.9zm32.24-28l-7.83 26.87a53.15 53.15 0 0 1-2.23 6.51 7.92 7.92 0 0 1-2.68 3.22 8.49 8.49 0 0 1-4.84 1.21 21.1 21.1 0 0 1-3.53-.33V41.8a18.4 18.4 0 0 0 3.62.39 3.88 3.88 0 0 0 3-.92 6.42 6.42 0 0 0 1-2.59l-9.07-28h7.76l4.82 16.69 4.62-16.69zm21.35 6.74L79.08 19a4.54 4.54 0 0 0-4.86-3.81c-2.48 0-3.71.85-3.71 2.53a2 2 0 0 0 .67 1.6 8.06 8.06 0 0 0 3.56 1 29.9 29.9 0 0 1 6.32 1.47 6.68 6.68 0 0 1 3.28 2.86 9.17 9.17 0 0 1 1.2 4.86 9.22 9.22 0 0 1-3 7c-1.93 1.82-4.66 2.73-8.17 2.73q-9.56 0-11.4-8.3l6.2-1q.77 3.7 5.55 3.71a6.08 6.08 0 0 0 3.09-.74 2.23 2.23 0 0 0 1.25-2c0-1.3-.92-2.07-2.78-2.31q-7.59-1-10-3.25A8 8 0 0 1 64 19.23a8.71 8.71 0 0 1 2.76-6.55q2.77-2.61 7.77-2.61a10.35 10.35 0 0 1 6.32 1.75 10.8 10.8 0 0 1 3.61 5.6zM96.54 0v8.28h-7.37V0zm0 10.64v28h-7.37v-28zm27.3 28h-7.15a23.08 23.08 0 0 1-.35-4.39 10.8 10.8 0 0 1-3.74 4 8.92 8.92 0 0 1-4.24 1 7.39 7.39 0 0 1-7.83-7.89 9.74 9.74 0 0 1 1.27-4.86 8.44 8.44 0 0 1 4-3.48q2.78-1.26 10.18-1.88v-1.59q0-4.08-3.64-4.08c-2.57 0-4 1.36-4.3 4.08l-6.84-.72c.44-3.18 1.79-5.44 4-6.77a14.49 14.49 0 0 1 7.62-2 17 17 0 0 1 4.8.66 7.68 7.68 0 0 1 3.51 2 7.12 7.12 0 0 1 1.71 2.82 20.48 20.48 0 0 1 .45 5.18v12.72a22 22 0 0 0 .52 5.24zM116 25.24q-7.74.86-7.73 5.24a4.09 4.09 0 0 0 .82 2.55 2.72 2.72 0 0 0 2.32 1.06 3.9 3.9 0 0 0 3.26-1.81 7.5 7.5 0 0 0 1.33-4.49zm34.61 13.44h-7.36V22.94a25.55 25.55 0 0 0-.2-3.91 3.4 3.4 0 0 0-1-1.8 2.69 2.69 0 0 0-1.93-.73q-3.89 0-3.89 6.44v15.74h-7.37v-28h6.86v4.75q1.69-3.39 3.36-4.36a6.87 6.87 0 0 1 3.59-1 7.78 7.78 0 0 1 5.74 2.15q2.17 2.14 2.17 8.45z"/>
</svg>
