<svg xmlns="http://www.w3.org/2000/svg" width="278.28" height="278.31" viewBox="-2 -2 278.28 278.31">
  <path d="M272.4 114.38l-40.12-16.64 16.52-39.89c-4.22-5.9-8.78-11.48-13.8-16.56-.3-.32-.6-.65-.92-.97-.51-.51-1.07-1-1.63-1.52-4.91-4.82-10.31-9.19-16-13.29l-39.89 16.5L159.93 1.9c-14.45-2.44-29.03-2.5-43.14-.35-.26.03-.48.05-.69.07-.61.09-1.2.22-1.75.35L97.72 41.99 57.6 25.39c-11.98 8.55-22.39 18.83-30.89 30.44-.08.12-.18.24-.27.37-.35.48-.69.98-1.02 1.49l16.57 40-40.11 16.65c-2.4 14.45-2.48 28.99-.35 43.09.03.25.05.52.1.76.07.59.19 1.16.3 1.74l40.06 16.58-16.57 39.99c3.81 5.34 7.92 10.46 12.39 15.15.79.83 1.54 1.7 2.37 2.52.57.59 1.22 1.13 1.83 1.7 4.82 4.69 10.13 8.94 15.7 12.93l39.97-16.56 16.58 40.05c.59.12 1.22.23 1.82.37.14-.02.32.01.47.03 14.17 2.18 28.78 2.11 43.33-.31l16.62-40.12 40.02 16.58c.52-.31 1.03-.66 1.52-1.03.15-.09.3-.22.47-.35 11.51-8.46 21.78-18.82 30.32-30.77l-16.62-40.14 40.06-16.58c.1-.57.23-1.18.34-1.8.02-.18.02-.37.05-.55 2.22-14.15 2.16-28.73-.26-43.24zm-32.42 30.25l-42.22 17.49.06.16-.14.05 17.5 42.2c-3.26 3.8-6.81 7.32-10.63 10.63l-42.22-17.47-.05.14-.14-.07-17.48 42.2c-4.99.37-9.97.35-15.02.02l-17.5-42.22-.12.05-.07-.16L69.6 215.2c-.44-.37-.93-.7-1.37-1.11-1.4-1.24-2.72-2.65-4.05-4-1.33-1.33-2.72-2.61-3.99-4.02-.37-.4-.71-.92-1.09-1.37l17.52-42.35-.14-.07.07-.13-42.23-17.49c-.33-5.04-.36-10.05.03-15.02l42.18-17.47-.04-.13.12-.05-17.52-42.26c3.31-3.81 6.84-7.37 10.62-10.62l42.22 17.47.05-.12.12.05 17.5-42.22c5.04-.35 10.04-.35 15.03.02l17.47 42.22.18.07 42.22-17.49c1.83 1.61 3.59 3.33 5.36 5.06 1.78 1.81 3.56 3.63 5.22 5.56l-17.47 42.2.14.05-.06.16 42.21 17.47c.44 4.99.45 10 .08 15.02zm-67.39-22.13l-.06-.12 10.23-24.62c-1.87-2.21-3.97-4.26-6.19-6.23l-24.66 10.2-.03-.06-.08.02-10.2-24.64a55.82 55.82 0 0 0-8.77 0l-10.21 24.63h-.07l-.04.03-24.65-10.17c-2.2 1.87-4.25 3.94-6.23 6.15l10.23 24.67-.08.03.03.09-24.73 10.26c-.03.31-.08.68-.1 1-.05 1.09-.01 2.21-.02 3.31 0 1.09-.04 2.22.05 3.32 0 .34.02.68.08 1.03l24.73 10.24v.11l.05.03-10.19 24.65c1.88 2.2 3.98 4.25 6.21 6.15l24.63-10.2.02.1.09-.03 10.21 24.65c2.96.23 5.88.23 8.78 0l10.2-24.65.08.03.05-.09 24.63 10.18c2.22-1.9 4.27-3.97 6.19-6.17l-10.2-24.63.07-.05-.03-.09 24.63-10.2c.1-1.48.12-3 .14-4.45 0-1.44-.02-2.89-.12-4.3l-24.67-10.18zm-35.44 31.26c-9.18 0-16.63-7.44-16.63-16.63 0-9.18 7.44-16.63 16.63-16.63s16.63 7.44 16.63 16.63c0 9.18-7.45 16.63-16.63 16.63z"/>
</svg>
